<svg width="20" height="20" viewBox="0 0 20 20" fill="none" xmlns="http://www.w3.org/2000/svg">
<path d="M18.7791 6.49081C18.3929 6.08659 17.9337 5.76629 17.4281 5.54843C16.9224 5.33057 16.3804 5.21949 15.8333 5.22161H2.33331L5.91664 1.48354C6.07268 1.32008 6.16007 1.09864 6.1596 0.867959C6.15914 0.637273 6.07084 0.41623 5.91414 0.253457C5.75744 0.0906833 5.54518 -0.000487126 5.32404 1.95765e-06C5.1029 0.000491042 4.89101 0.0925996 4.73497 0.256065L0.609972 4.55832C0.219407 4.96587 0 5.51856 0 6.09483C0 6.67111 0.219407 7.2238 0.609972 7.63135L4.73497 11.9353C4.81234 12.0163 4.90424 12.0805 5.00541 12.1244C5.10659 12.1683 5.21506 12.191 5.32463 12.1912C5.4342 12.1913 5.54273 12.169 5.64402 12.1254C5.74532 12.0818 5.83738 12.0178 5.91497 11.9371C5.99256 11.8564 6.05415 11.7605 6.09623 11.655C6.1383 11.5494 6.16004 11.4363 6.16019 11.322C6.16035 11.2077 6.13892 11.0944 6.09713 10.9888C6.05534 10.8831 5.99401 10.7871 5.91664 10.7061L2.32331 6.96024H15.8333C16.4964 6.96024 17.1322 7.235 17.6011 7.72409C18.0699 8.21318 18.3333 8.87652 18.3333 9.56819V15.6534C18.3333 16.3451 18.0699 17.0084 17.6011 17.4975C17.1322 17.9866 16.4964 18.2614 15.8333 18.2614H4.16664C3.94563 18.2614 3.73366 18.353 3.57738 18.516C3.4211 18.679 3.33331 18.9001 3.33331 19.1307C3.33331 19.3612 3.4211 19.5824 3.57738 19.7454C3.73366 19.9084 3.94563 20 4.16664 20H15.8333C16.938 19.9986 17.997 19.5402 18.7781 18.7254C19.5592 17.9105 19.9987 16.8058 20 15.6534V9.56819C20.0018 8.99649 19.8949 8.43008 19.6853 7.90182C19.4757 7.37357 19.1677 6.89396 18.7791 6.49081Z" fill="white"/>
</svg>
