<svg width="1440" height="59" viewBox="0 0 1440 59" fill="none" xmlns="http://www.w3.org/2000/svg">
<path d="M1229.92 16.2947C1259.71 -3.29954 1269.54 -7.46397 1291.06 16.2947C1305.17 31.8691 1344.37 -6.81594 1354.16 8.25562C1363.96 23.328 1386.84 -7.9402 1409.82 14.7869C1423.54 28.3519 1438.69 3.23244 1440 8.25562V58.9998H0V1.72437C1.82907 1.72437 13.3265 13.7822 20.7734 8.25562C34.1016 -1.63523 40.1255 11.2723 53.6963 3.73413C65.4546 -2.79728 83.9911 15.83 105.041 3.73413C116.407 -2.79727 140.437 22.4023 149.723 16.2947C179.51 -3.29954 189.342 -7.46397 210.866 16.2947C224.976 31.8686 264.17 -6.8164 273.969 8.25562C283.767 23.3281 306.641 -7.94059 329.625 14.7869C341.983 27.0072 355.507 7.83289 359.022 7.58374V7.58081C359.03 7.58081 359.038 7.58255 359.046 7.58276C359.149 7.57787 359.244 7.58868 359.329 7.6189C361.941 8.11522 373.465 13.5346 380.578 8.25562C393.906 -1.63519 399.93 11.2723 413.501 3.73413C425.259 -2.79728 443.796 15.83 464.846 3.73413C476.212 -2.79722 500.242 22.4023 509.527 16.2947C539.315 -3.29954 549.147 -7.46397 570.671 16.2947C584.781 31.8686 623.975 -6.8165 633.773 8.25562C643.572 23.3281 666.446 -7.94065 689.43 14.7869C701.788 27.0073 715.312 7.83265 718.827 7.58374V7.58081C718.835 7.58081 718.843 7.58254 718.851 7.58276C718.954 7.57788 719.049 7.58867 719.134 7.6189C721.746 8.11546 733.269 13.5343 740.382 8.25562C753.71 -1.63569 759.735 11.2724 773.306 3.73413C785.064 -2.79708 803.601 15.8299 824.65 3.73413C836.017 -2.79698 860.047 22.4024 869.332 16.2947C899.12 -3.29948 908.951 -7.46394 930.475 16.2947C944.585 31.8695 983.78 -6.81686 993.578 8.25562C1003.38 23.328 1026.25 -7.93996 1049.23 14.7869C1062.95 28.3485 1078.1 3.24466 1079.41 8.25171V7.58081C1081.24 7.58081 1093.52 13.7822 1100.97 8.25562C1114.3 -1.63556 1120.32 11.2719 1133.89 3.73413C1145.65 -2.79723 1164.19 15.8295 1185.24 3.73413C1196.6 -2.79718 1220.63 22.4014 1229.92 16.2947Z" fill="#F2F2F2"/>
</svg>
