<svg width="1440" height="59" viewBox="0 0 1440 59" fill="none" xmlns="http://www.w3.org/2000/svg">
<path fill-rule="evenodd" clip-rule="evenodd" d="M1229.92 42.7061C1259.71 62.3002 1269.54 66.4644 1291.06 42.7061C1305.17 27.1312 1344.37 65.8162 1354.16 50.7441C1363.96 35.6717 1386.84 66.9402 1409.82 44.2129C1423.54 30.6477 1438.69 55.7683 1440 50.7441V0H0V57.2754C1.82907 57.2754 13.3265 45.2176 20.7734 50.7441C34.1016 60.6351 40.1255 47.7276 53.6963 55.2656C65.4546 61.797 83.9911 43.1699 105.041 55.2656C116.407 61.797 140.438 36.5983 149.723 42.7061C179.51 62.3001 189.342 66.4646 210.866 42.7061C224.976 27.1312 264.17 65.8166 273.969 50.7441C283.767 35.6718 306.641 66.9404 329.625 44.2129C341.983 31.9927 355.507 51.1668 359.022 51.416V51.4199C359.032 51.4199 359.042 51.4183 359.052 51.418C359.151 51.4221 359.242 51.4112 359.324 51.3828C361.927 50.8925 373.46 45.4617 380.578 50.7441C393.906 60.6351 399.93 47.7276 413.501 55.2656C425.259 61.797 443.796 43.1699 464.846 55.2656C476.212 61.797 500.242 36.5983 509.527 42.7061C539.315 62.3001 549.147 66.4646 570.671 42.7061C584.781 27.1312 623.975 65.8166 633.773 50.7441C643.572 35.6719 666.446 66.9404 689.43 44.2129C701.788 31.9927 715.312 51.167 718.827 51.416V51.4199C718.837 51.4199 718.846 51.4183 718.856 51.418C718.956 51.4221 719.047 51.4105 719.13 51.3818C721.735 50.8899 733.265 45.4629 740.382 50.7441C753.71 60.6354 759.735 47.7273 773.306 55.2656C785.064 61.797 803.6 43.1698 824.65 55.2656C836.017 61.797 860.047 36.5983 869.332 42.7061C899.119 62.2999 908.951 66.4642 930.475 42.7061C944.585 27.1312 983.78 65.8166 993.578 50.7441C1003.38 35.6722 1026.25 66.9399 1049.23 44.2129C1062.95 30.651 1078.1 55.7562 1079.41 50.748V51.4199C1081.24 51.4199 1093.52 45.2177 1100.97 50.7441C1114.3 60.6353 1120.32 47.7279 1133.89 55.2656C1145.65 61.797 1164.19 43.1704 1185.24 55.2656C1196.6 61.797 1220.63 36.5985 1229.92 42.7061Z" fill="#F2F2F2"/>
</svg>
