<svg width="42" height="36" viewBox="0 0 42 36" fill="none" xmlns="http://www.w3.org/2000/svg">
<path d="M16.6328 25.8037C17.8284 25.6052 19.0681 25.7071 20.1943 26.0967C21.3206 26.4863 22.2827 27.1467 22.96 27.9932C23.6373 28.8397 23.999 29.8345 23.999 30.8525C23.9973 32.2173 23.348 33.5262 22.1924 34.4912C21.0367 35.4562 19.4693 35.9986 17.835 36C16.6158 36 15.4239 35.6984 14.4102 35.1328C13.3964 34.5672 12.6062 33.7628 12.1396 32.8223C11.6732 31.8818 11.5513 30.847 11.7891 29.8486C12.0269 28.8501 12.6145 27.9328 13.4766 27.2129C14.3386 26.4931 15.4371 26.0023 16.6328 25.8037ZM32.3301 25.8037C33.5257 25.6051 34.7653 25.7072 35.8916 26.0967C37.018 26.4863 37.9809 27.1467 38.6582 27.9932C39.3355 28.8396 39.6973 29.8345 39.6973 30.8525C39.6956 32.2173 39.0453 33.5262 37.8896 34.4912C36.7341 35.456 35.1673 35.9985 33.5332 36C32.3141 36 31.122 35.6983 30.1084 35.1328C29.0947 34.5672 28.3045 33.7628 27.8379 32.8223C27.3714 31.8818 27.2495 30.8471 27.4873 29.8486C27.7251 28.8502 28.3118 27.9328 29.1738 27.2129C30.0359 26.493 31.1344 26.0023 32.3301 25.8037ZM17.835 28.3926C17.2521 28.3926 16.6819 28.5372 16.1973 28.8076C15.7128 29.0781 15.3353 29.4625 15.1123 29.9121C14.8893 30.3618 14.8305 30.8566 14.9443 31.334C15.0581 31.8114 15.3397 32.2496 15.752 32.5938C16.1642 32.9378 16.6891 33.1727 17.2607 33.2676C17.8324 33.3624 18.4254 33.3133 18.9639 33.127C19.5022 32.9405 19.9625 32.6245 20.2861 32.2197C20.6097 31.815 20.7824 31.3392 20.7822 30.8525C20.7814 30.2002 20.4705 29.5745 19.918 29.1133C19.3654 28.6521 18.6162 28.3931 17.835 28.3926ZM33.5332 28.3926C32.9503 28.3926 32.3802 28.5372 31.8955 28.8076C31.4109 29.0781 31.0326 29.4624 30.8096 29.9121C30.5867 30.3617 30.5288 30.8567 30.6426 31.334C30.7564 31.8113 31.0371 32.2497 31.4492 32.5938C31.8615 32.9379 32.3872 33.1727 32.959 33.2676C33.5305 33.3623 34.1229 33.3132 34.6611 33.127C35.1996 32.9406 35.6597 32.6245 35.9834 32.2197C36.3071 31.8149 36.4797 31.3393 36.4795 30.8525C36.4786 30.2002 36.1686 29.5745 35.6162 29.1133C35.0638 28.6521 34.3143 28.3931 33.5332 28.3926ZM7.86133 0C8.19885 9.67811e-05 8.52797 0.0890658 8.80176 0.253906C9.07554 0.418804 9.28004 0.651501 9.38672 0.918945L12.1445 7.83496H40.3896C40.6316 7.83459 40.8707 7.87936 41.0889 7.9668C41.3072 8.05432 41.4994 8.18276 41.6504 8.34082C41.8011 8.49872 41.9072 8.68299 41.9609 8.87988C42.0147 9.07705 42.0142 9.28242 41.96 9.47949L38.25 22.9551C38.1691 23.2518 37.9693 23.5162 37.6846 23.7061C37.3997 23.8959 37.0461 23.9999 36.6816 24H14.6826C14.3177 24.0004 13.9631 23.8969 13.6777 23.707C13.3925 23.5172 13.1933 23.252 13.1123 22.9551L9.41699 9.5127L6.69629 2.68652H1.6084C1.18185 2.68647 0.772324 2.54483 0.470703 2.29297C0.169373 2.04119 0.000147835 1.69971 0 1.34375C0 0.987618 0.169228 0.645443 0.470703 0.393555C0.772324 0.141689 1.18185 5.49728e-05 1.6084 0H7.86133ZM15.9639 21.3135H35.4014L38.3691 10.5244H12.9951L15.9639 21.3135Z" fill="#3A2619"/>
</svg>
