<svg width="50" height="50" viewBox="0 0 50 50" fill="none" xmlns="http://www.w3.org/2000/svg">
<path d="M25.9707 8.26459C31.0419 0.393353 39.7465 -2.33345 45.4131 2.17474C51.0797 6.68319 51.5625 16.7194 46.4912 24.5908C45.8066 25.6534 45.0545 26.6212 44.2539 27.4911L25.917 49.5497C25.4174 50.1502 24.563 50.1503 24.0635 49.5497L5.52051 27.2421C4.80414 26.4375 4.12874 25.553 3.50879 24.5908C-1.56249 16.7194 -1.07966 6.68319 4.58691 2.17474C10.2535 -2.33345 18.9581 0.393354 24.0293 8.26459C24.3796 8.80835 24.7026 9.36286 25 9.92474C25.2974 9.36286 25.6204 8.80835 25.9707 8.26459Z" fill="#E26567"/>
</svg>
