<svg width="29" height="29" viewBox="0 0 29 29" fill="none" xmlns="http://www.w3.org/2000/svg">
<path d="M11 0C17.0751 0 22 4.92487 22 11C22 13.5716 21.1143 15.9345 19.6357 17.8076L28.707 26.8789C29.0975 27.2694 29.0975 27.9025 28.707 28.293C28.3165 28.6834 27.6835 28.6834 27.293 28.293L18.2598 19.2598C16.3224 20.9639 13.783 22 11 22C4.92487 22 0 17.0751 0 11C0 4.92487 4.92487 0 11 0ZM11 2C6.02944 2 2 6.02944 2 11C2 15.9706 6.02944 20 11 20C15.9706 20 20 15.9706 20 11C20 6.02944 15.9706 2 11 2Z" fill="black"/>
</svg>
